# xmcd
#
# Track frame offsets: 
#        150
#        16972
#        37658
#        59590
#        76887
#        94470
#        111087
#        124475
#        140144
#        154479
#        173506
#        191430
#        211125
#        228476
#        245666
#        263973
#        280957
#        300130
#        317737
#        336778
#
# Disc length: 4714 seconds
#
# Revision: 3
# Processed by: cddbd v1.5.2PL0 Copyright (c) Steve Scherf et al.
# Submitted via: ExactAudioCopy v1.3
#
DISCID=1b126814
DTITLE=Various Artist - What's Up R&B Greatest Hits! II [Disc 2]
DYEAR=2007
DGENRE=R&B
TTITLE0=Ne-Yo Feat. Kanye West - Because Of You (Remix)
TTITLE1=Rihanna Feat. Jay-Z - Umbrella
TTITLE2=Fergie Feat. will.i.am - Fergalicious
TTITLE3=Mya Feat. DJ Kool - Ayo
TTITLE4=Timbaland Feat. Justin Timberlake and Nelly Furtado - Give It To
TTITLE4=Me
TTITLE5=The Pussycat Dolls Feat. Timbaland - Wait A Minute
TTITLE6=Gwen Stefani - Now That You Got It
TTITLE7=Lloyd - Get It Shawty
TTITLE8=Miguel Feat. Major - Getcha Hands Up
TTITLE9=Fabolous Feat. Ne-Yo - Make Me Better
TTITLE10=Young Chris Feat. Bobby Valentino - Coast 2 Coast
TTITLE11=Rich Boy Feat. Polow Da Don and Keri Hilson - Good Things
TTITLE12=Shareefa Feat. Ludacris - Need A Boss
TTITLE13=JoJo - Anything
TTITLE14=Keyshia Cole Feat. Eve - Never
TTITLE15=Tamia - Daydreaming (DJ Hasebe Remix)
TTITLE16=Charlie Feat. Greg Nice - Gimme Gimme (Goody Goody Remix)
TTITLE17=Shades - Tell Me Your Name (Clark Kent Remix)
TTITLE18=Gabrielle - I Wish (7 Inch Mix)
TTITLE19=Tony Thompson - My Cherie Amour
EXTD=YEAR: 2007
EXTT0=
EXTT1=
EXTT2=
EXTT3=
EXTT4=
EXTT5=
EXTT6=
EXTT7=
EXTT8=
EXTT9=
EXTT10=
EXTT11=
EXTT12=
EXTT13=
EXTT14=
EXTT15=
EXTT16=
EXTT17=
EXTT18=
EXTT19=
PLAYORDER=
